<svg width="256" height="256" viewBox="0 0 256 256" fill="none" xmlns="http://www.w3.org/2000/svg">
<g clip-path="url(#clip0_114_18)">
<path d="M196 0H60C26.8629 0 0 26.8629 0 60V196C0 229.137 26.8629 256 60 256H196C229.137 256 256 229.137 256 196V60C256 26.8629 229.137 0 196 0Z" fill="#242938"/>
<g clip-path="url(#clip1_114_18)">
<path d="M177.938 28H78.0625C53.7275 28 34 48.9867 34 74.875V181.125C34 207.013 53.7275 228 78.0625 228H177.938C202.273 228 222 207.013 222 181.125V74.875C222 48.9867 202.273 28 177.938 28Z" fill="#0277BD"/>
<path d="M73.4746 108.196L75.577 133.151H128.07V108.196H73.4746Z" fill="#EBEBEB"/>
<path d="M128.07 57.6875H127.989H69.25L71.3823 82.6424H128.07V57.6875Z" fill="#EBEBEB"/>
<path d="M128.07 198.97V173.006L127.967 173.035L101.843 165.531L100.173 145.628H87.478H76.625L79.9113 184.811L127.962 199.002L128.07 198.97Z" fill="#EBEBEB"/>
<path d="M156.874 133.151L154.151 165.515L127.989 173.027V198.989L176.078 184.811L176.431 180.595L181.943 114.898L182.515 108.196L186.75 57.6875H127.989V82.6424H161.043L158.908 108.196H127.989V133.151H156.874Z" fill="white"/>
</g>
</g>
<defs>
<clipPath id="clip0_114_18">
<rect width="256" height="256" fill="white"/>
</clipPath>
<clipPath id="clip1_114_18">
<rect width="188" height="200" fill="white" transform="translate(34 28)"/>
</clipPath>
</defs>
</svg>
