<svg width="256" height="256" viewBox="0 0 256 256" fill="none" xmlns="http://www.w3.org/2000/svg">
<g clip-path="url(#clip0_114_26)">
<path d="M196 0H60C26.8629 0 0 26.8629 0 60V196C0 229.137 26.8629 256 60 256H196C229.137 256 256 229.137 256 196V60C256 26.8629 229.137 0 196 0Z" fill="#242938"/>
<g clip-path="url(#clip1_114_26)">
<path d="M177.938 28H78.0625C53.7275 28 34 48.9867 34 74.875V181.125C34 207.013 53.7275 228 78.0625 228H177.938C202.273 228 222 207.013 222 181.125V74.875C222 48.9867 202.273 28 177.938 28Z" fill="#E14E1D"/>
<path d="M69.25 57.6875L75.5728 133.151H156.876L154.147 165.518L127.97 173.048L101.842 165.529L100.095 144.746H76.5489L79.9158 184.809L127.964 199.006L176.073 184.809L182.523 108.199H97.0271L94.8804 82.6444H184.577H184.649L186.75 57.6875H69.25Z" fill="white"/>
<path d="M128 57.6875H69.25L75.5728 133.151H128V108.199H97.0271L94.8804 82.6444H128V57.6875Z" fill="#EBEBEB"/>
<path d="M128 173.037L127.97 173.048L101.842 165.529L100.095 144.746H76.5488L79.9158 184.809L127.964 199.006L128 198.995V173.037Z" fill="#EBEBEB"/>
</g>
</g>
<defs>
<clipPath id="clip0_114_26">
<rect width="256" height="256" fill="white"/>
</clipPath>
<clipPath id="clip1_114_26">
<rect width="188" height="200" fill="white" transform="translate(34 28)"/>
</clipPath>
</defs>
</svg>
