<svg width="36" height="36" viewBox="0 0 36 36" fill="none" xmlns="http://www.w3.org/2000/svg">
<path fill-rule="evenodd" clip-rule="evenodd" d="M31 36C33.762 36 36 33.762 36 31V5C36 2.238 33.762 0 31 0H5C2.239 0 0 2.238 0 5V31C0 33.762 2.239 36 5 36H31ZM11 13H6V30H11V13ZM8.457 11H8.485C10.035 11 11 9.887 11 8.499C10.972 7.08 10.035 6 8.514 6C6.995 6 6 7.08 6 8.499C6 9.888 6.965 11 8.457 11ZM25 30H30L29.999 20.274C29.999 15.25 27.316 13 23.738 13C20.85 13 19.721 14.5 19 15.616V13H14V30H19V21C19 20.9166 18.9987 20.8192 18.9974 20.7133C18.9908 20.1986 18.9816 19.4833 19.101 19.193C19.495 18.215 20.307 17.203 21.808 17.203C23.775 17.203 25 18.703 25 20.901V30Z" fill="#FAFAFA"/>
</svg>
