<svg width="256" height="256" viewBox="0 0 256 256" fill="none" xmlns="http://www.w3.org/2000/svg">
<g clip-path="url(#clip0_114_34)">
<path d="M196 0H60C26.8629 0 0 26.8629 0 60V196C0 229.137 26.8629 256 60 256H196C229.137 256 256 229.137 256 196V60C256 26.8629 229.137 0 196 0Z" fill="#242938"/>
<path d="M46.5191 150.277C42.7991 138.56 41.7261 126.192 43.8722 113.462C44.8022 108.182 46.2329 103.119 47.8068 97.9836C47.8068 97.9836 57.6789 65.2186 91.0868 50.2466C91.0868 50.2466 102.604 44.0986 119.916 43.6647C119.916 43.6647 117.556 41.3501 116.053 40.3375C107.898 34.8405 95.7367 33.0323 88.3684 40.7715C86.1507 43.086 84.2908 45.6175 82.2162 47.9321C79.8555 50.5359 76.994 52.7058 73.7032 53.9353C70.8418 55.0203 67.9803 54.8033 65.0472 55.3096C62.0427 55.8159 58.9666 56.9008 56.5343 58.8537C53.8874 61.0236 52.8144 63.9167 52.5282 67.2438C52.2421 69.8477 52.3136 72.5238 52.1705 75.1277C51.8128 82.7945 49.3806 84.9644 43.9437 89.2318C41.6545 90.9677 39.723 93.2822 38.2923 95.7414C34.0001 103.408 40.8676 111.364 41.2253 119.104C41.2969 120.695 41.1538 122.286 40.5815 123.805C40.0092 125.468 38.8646 126.553 37.9346 127.928C36.6469 129.736 35.7885 131.906 36.1462 134.148C36.5039 136.39 37.6485 138.488 38.7215 140.441C40.7961 143.912 43.3714 147.022 46.0899 149.988C46.2329 149.988 46.376 150.133 46.5191 150.277Z" fill="#E32286"/>
<path d="M183.012 178.051C199.466 170.819 206.476 158.306 206.476 158.306C221.857 137.113 216.635 114.764 216.635 114.764C206.834 136.318 197.892 142.249 197.892 142.249C222 105.144 198.035 82.7222 198.035 82.7222C207.836 103.842 194.816 129.591 194.816 129.591C183.871 152.881 168.347 161.199 168.347 161.199C185.659 164.454 198.393 152.664 198.393 152.664C173.569 179.787 146.671 178.485 146.671 178.485C157.974 191.288 174.928 190.203 174.928 190.203C152.752 195.483 131.935 188.033 114.837 173.639C111.618 170.963 108.542 168.07 105.68 164.96C105.68 164.96 103.105 162.212 102.604 161.488L102.533 161.416C102.175 174.797 115.982 187.237 115.982 187.237C98.6697 180.004 90.7291 164.309 90.7291 164.309C90.7291 164.309 79.0685 144.202 87.5099 121.273C95.9513 98.3452 121.49 93.4268 121.49 93.4268C142.594 103.77 160.478 107.025 160.478 107.025C198.178 113.39 196.032 94.7288 196.032 94.7288C196.39 78.6718 172.425 61.6022 172.425 61.6022C129.717 29.5605 91.0868 50.2466 91.0868 50.2466C57.6788 65.2186 47.8067 97.9836 47.8067 97.9836C46.2329 103.119 44.8021 108.182 43.8722 113.462C40.2238 134.944 45.7321 155.268 57.6788 173.35C76.2785 201.414 106.467 211.106 106.467 211.106C151.178 226.439 181.725 203.873 181.725 203.873C209.839 184.344 215.49 161.778 215.49 161.778C192.813 179.715 183.012 178.051 183.012 178.051ZM148.102 72.5238C150.248 72.5238 151.965 74.2597 151.965 76.4296C151.965 78.5994 150.248 80.3353 148.102 80.3353C145.956 80.3353 144.239 78.5994 144.239 76.4296C144.239 74.2597 145.956 72.5238 148.102 72.5238Z" fill="url(#paint0_linear_114_34)"/>
<path d="M195.96 94.6564C196.318 78.5995 172.353 61.5299 172.353 61.5299C129.645 29.5606 91.0153 50.2466 91.0153 50.2466C57.6073 65.2186 47.7352 97.9836 47.7352 97.9836C45.8037 103.553 44.0868 112.088 44.0868 112.088C42.0122 122.792 42.9422 132.701 42.9422 132.701C43.8006 142.176 45.8752 148.541 45.8752 148.541C48.0213 155.34 49.0229 157.438 49.0229 157.438C48.9513 157.221 48.5936 155.63 48.5936 155.63C48.5936 155.63 45.5891 141.019 48.379 126.987C48.379 126.987 50.8113 112.377 60.6834 101.094C60.6834 101.094 76.7078 78.0208 106.539 87.0619C106.539 87.0619 112.977 89.3764 115.195 90.5337C117.413 91.6186 121.276 93.2822 121.276 93.2822C142.379 103.625 160.263 106.88 160.263 106.88C198.107 113.317 195.96 94.6564 195.96 94.6564ZM148.102 80.4077C145.956 80.4077 144.239 78.6718 144.239 76.5019C144.239 74.3321 145.956 72.5962 148.102 72.5962C150.248 72.5962 151.965 74.3321 151.965 76.5019C151.965 78.6718 150.248 80.4077 148.102 80.4077Z" fill="url(#paint1_radial_114_34)"/>
<path d="M123.636 65.5803L99.2421 57.9134C99.099 57.9134 98.3836 57.5518 97.0959 57.9134C97.0959 57.9134 82.7169 61.6022 85.2207 69.5584C85.2207 69.5584 86.723 74.549 90.8007 79.3951L117.627 78.0932L123.636 65.5803Z" fill="url(#paint2_linear_114_34)"/>
</g>
<defs>
<linearGradient id="paint0_linear_114_34" x1="63.6136" y1="202.644" x2="153.672" y2="107.886" gradientUnits="userSpaceOnUse">
<stop stop-color="#E01D84"/>
<stop offset="0.401" stop-color="#DF1D85"/>
<stop offset="0.77" stop-color="#932C87"/>
<stop offset="1" stop-color="#5D2F88"/>
</linearGradient>
<radialGradient id="paint1_radial_114_34" cx="0" cy="0" r="1" gradientUnits="userSpaceOnUse" gradientTransform="translate(161.591 81.4951) rotate(0.138452) scale(86.9767 73.5346)">
<stop stop-color="#E01D84"/>
<stop offset="0.139" stop-color="#DE1E85"/>
<stop offset="0.285" stop-color="#D62085"/>
<stop offset="0.434" stop-color="#C92386"/>
<stop offset="0.586" stop-color="#B72786"/>
<stop offset="0.739" stop-color="#9D2B87"/>
<stop offset="0.891" stop-color="#7C2E88"/>
<stop offset="1" stop-color="#5D2F88"/>
</radialGradient>
<linearGradient id="paint2_linear_114_34" x1="84.8716" y1="68.5718" x2="123.616" y2="68.5718" gradientUnits="userSpaceOnUse">
<stop stop-color="#E01D84"/>
<stop offset="0.238" stop-color="#DA1E85"/>
<stop offset="0.658" stop-color="#C72085"/>
<stop offset="0.999" stop-color="#B52284"/>
</linearGradient>
<clipPath id="clip0_114_34">
<rect width="256" height="256" fill="white"/>
</clipPath>
</defs>
</svg>
