<svg width="588" height="121" viewBox="0 0 588 121" fill="none" xmlns="http://www.w3.org/2000/svg">
<path d="M13.4297 26.3691C11.4492 26.3691 9.70312 26.0234 8.19141 25.332C6.69141 24.6289 5.51953 23.6152 4.67578 22.291C3.83203 20.9551 3.41016 19.3438 3.41016 17.457V3.83398L0.667969 3.30664V0.40625H10.9512V3.30664L8.19141 3.83398V17.457C8.19141 18.6172 8.40234 19.584 8.82422 20.3574C9.25781 21.1309 9.86719 21.7109 10.6523 22.0977C11.4375 22.4844 12.3633 22.6777 13.4297 22.6777C14.5195 22.6777 15.4629 22.4902 16.2598 22.1152C17.0566 21.7285 17.666 21.1484 18.0879 20.375C18.5215 19.6016 18.7383 18.6289 18.7383 17.457V3.83398L15.9785 3.30664V0.40625H26.2793V3.30664L23.5195 3.83398V17.457C23.5195 19.3555 23.0977 20.9727 22.2539 22.3086C21.4102 23.6328 20.2324 24.6406 18.7207 25.332C17.209 26.0234 15.4453 26.3691 13.4297 26.3691ZM28.1426 26V23.1172L30.9023 22.5898V3.83398L28.1426 3.30664V0.40625H38.4434V3.30664L35.6836 3.83398V22.5898L38.4434 23.1172V26H28.1426ZM39.1992 28.1973L49.7812 0.40625H54.123L43.541 28.1973H39.1992ZM67.1836 26.3691C65.2031 26.3691 63.457 26.0234 61.9453 25.332C60.4453 24.6289 59.2734 23.6152 58.4297 22.291C57.5859 20.9551 57.1641 19.3438 57.1641 17.457V3.83398L54.4219 3.30664V0.40625H64.7051V3.30664L61.9453 3.83398V17.457C61.9453 18.6172 62.1562 19.584 62.5781 20.3574C63.0117 21.1309 63.6211 21.7109 64.4062 22.0977C65.1914 22.4844 66.1172 22.6777 67.1836 22.6777C68.2734 22.6777 69.2168 22.4902 70.0137 22.1152C70.8105 21.7285 71.4199 21.1484 71.8418 20.375C72.2754 19.6016 72.4922 18.6289 72.4922 17.457V3.83398L69.7324 3.30664V0.40625H80.0332V3.30664L77.2734 3.83398V17.457C77.2734 19.3555 76.8516 20.9727 76.0078 22.3086C75.1641 23.6328 73.9863 24.6406 72.4746 25.332C70.9629 26.0234 69.1992 26.3691 67.1836 26.3691ZM81.6152 26V23.1172L83.8477 22.6953L91.2305 13.2559L84.3047 3.74609L82.1953 3.30664V0.40625H91.8281V3.30664L89.4023 3.53516L94.0605 10.0742L98.666 3.53516L96.2578 3.30664V0.40625H105.803V3.30664L103.518 3.74609L96.8906 12.9043L104.309 22.6777L106.699 23.1172V26H96.8555V23.1172L99.1055 22.8887L94.0781 15.998L88.9805 22.8887L91.1777 23.1172V26H81.6152ZM117.193 26V23.1172L119.039 22.8535L127.354 0.40625H132.117L140.361 22.8535L142.189 23.1172V26H133.77V23.1172L135.58 22.7832L134.332 19.0215H125.068L123.82 22.7832L125.613 23.1172V26H117.193ZM126.246 15.418H133.154L130.008 6.3125L129.762 5.57422H129.656L129.393 6.34766L126.246 15.418ZM144.105 26V23.1172L146.848 22.5898V3.83398L144.105 3.30664V0.40625H146.848H151.699L163.143 18.6172L163.248 18.5996V3.83398L159.996 3.30664V0.40625H167.537H170.297V3.30664L167.537 3.83398V26H162.949L151.26 7.91211L151.154 7.92969V22.5898L154.406 23.1172V26H144.105ZM184.078 26.3691C181.57 26.3691 179.426 25.8359 177.645 24.7695C175.863 23.7031 174.498 22.2266 173.549 20.3398C172.6 18.4531 172.125 16.2617 172.125 13.7656V12.9922C172.125 10.4258 172.6 8.17578 173.549 6.24219C174.498 4.29687 175.828 2.7793 177.539 1.68945C179.262 0.587891 181.283 0.0371094 183.604 0.0371094C185.479 0.0371094 187.195 0.283203 188.754 0.775391C190.324 1.26758 191.689 1.99414 192.85 2.95508V8.52734H189.246L188.596 5.0293C188.115 4.64258 187.482 4.33789 186.697 4.11523C185.912 3.88086 185.004 3.76367 183.973 3.76367C182.543 3.76367 181.295 4.15039 180.229 4.92383C179.162 5.68555 178.336 6.75781 177.75 8.14062C177.176 9.52344 176.889 11.1289 176.889 12.957V13.7656C176.889 15.5703 177.17 17.1406 177.732 18.4766C178.307 19.8008 179.133 20.832 180.211 21.5703C181.301 22.2969 182.631 22.6602 184.201 22.6602C185.162 22.6602 186.023 22.5723 186.785 22.3965C187.559 22.2207 188.203 22.0039 188.719 21.7461V17.0527L184.799 16.7891V13.3965H193.518V23.6621C192.463 24.4473 191.156 25.0977 189.598 25.6133C188.051 26.1172 186.211 26.3691 184.078 26.3691ZM208.793 26.3691C206.812 26.3691 205.066 26.0234 203.555 25.332C202.055 24.6289 200.883 23.6152 200.039 22.291C199.195 20.9551 198.773 19.3438 198.773 17.457V3.83398L196.031 3.30664V0.40625H206.314V3.30664L203.555 3.83398V17.457C203.555 18.6172 203.766 19.584 204.188 20.3574C204.621 21.1309 205.23 21.7109 206.016 22.0977C206.801 22.4844 207.727 22.6777 208.793 22.6777C209.883 22.6777 210.826 22.4902 211.623 22.1152C212.42 21.7285 213.029 21.1484 213.451 20.375C213.885 19.6016 214.102 18.6289 214.102 17.457V3.83398L211.342 3.30664V0.40625H221.643V3.30664L218.883 3.83398V17.457C218.883 19.3555 218.461 20.9727 217.617 22.3086C216.773 23.6328 215.596 24.6406 214.084 25.332C212.572 26.0234 210.809 26.3691 208.793 26.3691ZM223.506 26V23.1172L226.266 22.5898V3.83398L223.506 3.30664V0.40625H226.266H231.047H234.088V3.30664L231.047 3.83398V22.3438H238.658L238.939 18.5293H242.596V26H223.506ZM244.459 26V23.1172L246.305 22.8535L254.619 0.40625H259.383L267.627 22.8535L269.455 23.1172V26H261.035V23.1172L262.846 22.7832L261.598 19.0215H252.334L251.086 22.7832L252.879 23.1172V26H244.459ZM253.512 15.418H260.42L257.273 6.3125L257.027 5.57422H256.922L256.658 6.34766L253.512 15.418ZM271.354 26V23.1172L274.113 22.5898V3.83398L271.354 3.30664V0.40625H283.342C285.275 0.40625 286.934 0.705078 288.316 1.30273C289.711 1.90039 290.771 2.76172 291.498 3.88672C292.236 5.01172 292.605 6.35938 292.605 7.92969C292.605 9.42969 292.242 10.7539 291.516 11.9023C290.789 13.0508 289.77 13.9531 288.457 14.6094C287.156 15.2539 285.645 15.582 283.922 15.5938L278.895 15.6113V22.5898L281.654 23.1172V26H271.354ZM287.912 26L283.307 14.5742L287.701 13.6777L291.639 22.625L293.73 23.082V26H287.912ZM278.895 11.9199H283.184C284.766 11.9199 285.938 11.5977 286.699 10.9531C287.461 10.2969 287.842 9.34766 287.842 8.10547C287.842 6.88672 287.467 5.91406 286.717 5.1875C285.967 4.46094 284.842 4.09766 283.342 4.09766H278.895V11.9199ZM304.893 26V23.1172L307.652 22.5898V3.83398L304.893 3.30664V0.40625H316.881C318.814 0.40625 320.473 0.705078 321.855 1.30273C323.25 1.90039 324.311 2.76172 325.037 3.88672C325.775 5.01172 326.145 6.35938 326.145 7.92969C326.145 9.42969 325.781 10.7539 325.055 11.9023C324.328 13.0508 323.309 13.9531 321.996 14.6094C320.695 15.2539 319.184 15.582 317.461 15.5938L312.434 15.6113V22.5898L315.193 23.1172V26H304.893ZM321.451 26L316.846 14.5742L321.24 13.6777L325.178 22.625L327.27 23.082V26H321.451ZM312.434 11.9199H316.723C318.305 11.9199 319.477 11.5977 320.238 10.9531C321 10.2969 321.381 9.34766 321.381 8.10547C321.381 6.88672 321.006 5.91406 320.256 5.1875C319.506 4.46094 318.381 4.09766 316.881 4.09766H312.434V11.9199ZM329.572 26V23.1172L332.332 22.5898V3.83398L329.572 3.30664V0.40625H349.242V7.15625H345.551L345.287 4.08008H337.113V10.918H345.938V14.627H337.113V22.3438H345.744L346.008 19.1973H349.664V26H329.572ZM352.318 26V23.1172L354.164 22.8535L362.479 0.40625H367.242L375.486 22.8535L377.314 23.1172V26H368.895V23.1172L370.705 22.7832L369.457 19.0215H360.193L358.945 22.7832L360.738 23.1172V26H352.318ZM361.371 15.418H368.279L365.133 6.3125L364.887 5.57422H364.781L364.518 6.34766L361.371 15.418ZM390.182 26.3691C387.674 26.3691 385.512 25.8418 383.695 24.7871C381.891 23.7324 380.502 22.25 379.529 20.3398C378.557 18.418 378.07 16.168 378.07 13.5898V12.834C378.07 10.3496 378.545 8.14648 379.494 6.22461C380.443 4.30273 381.803 2.79102 383.572 1.68945C385.342 0.587891 387.451 0.0371094 389.9 0.0371094C391.623 0.0371094 393.229 0.289062 394.717 0.792969C396.205 1.28516 397.518 2.01172 398.654 2.97266V9.01953H395.051L394.559 5.09961C394.172 4.81836 393.744 4.57812 393.275 4.37891C392.818 4.17969 392.314 4.02734 391.764 3.92188C391.225 3.81641 390.639 3.76367 390.006 3.76367C388.506 3.76367 387.223 4.13867 386.156 4.88867C385.09 5.62695 384.27 6.66992 383.695 8.01758C383.133 9.36523 382.852 10.959 382.852 12.7988V13.5898C382.852 15.4531 383.15 17.0645 383.748 18.4238C384.346 19.7832 385.195 20.832 386.297 21.5703C387.41 22.2969 388.734 22.6602 390.27 22.6602C391.031 22.6602 391.787 22.5781 392.537 22.4141C393.287 22.2383 393.955 22.0098 394.541 21.7285L395.051 18.125H398.619V24.1191C397.635 24.7637 396.416 25.3027 394.963 25.7363C393.51 26.1582 391.916 26.3691 390.182 26.3691ZM406.688 26V23.1172L409.447 22.5898V4.08008H404.543L404.209 7.24414H400.605V0.40625H423.105V7.24414H419.484L419.15 4.08008H414.229V22.5898L417.006 23.1172V26H406.688ZM434.074 26V23.1172L436.816 22.5898V3.83398L434.074 3.30664V0.40625H436.816H441.668L453.111 18.6172L453.217 18.5996V3.83398L449.965 3.30664V0.40625H457.506H460.266V3.30664L457.506 3.83398V26H452.918L441.229 7.91211L441.123 7.92969V22.5898L444.375 23.1172V26H434.074ZM462.217 26V23.1172L464.977 22.5898V3.83398L462.217 3.30664V0.40625H481.887V7.15625H478.195L477.932 4.08008H469.758V10.918H478.582V14.627H469.758V22.3438H478.389L478.652 19.1973H482.309V26H462.217ZM484.928 26V23.1172L487.16 22.6953L494.543 13.2559L487.617 3.74609L485.508 3.30664V0.40625H495.141V3.30664L492.715 3.53516L497.373 10.0742L501.979 3.53516L499.57 3.30664V0.40625H509.115V3.30664L506.83 3.74609L500.203 12.9043L507.621 22.6777L510.012 23.1172V26H500.168V23.1172L502.418 22.8887L497.391 15.998L492.293 22.8887L494.49 23.1172V26H484.928ZM517.887 26V23.1172L520.646 22.5898V4.08008H515.742L515.408 7.24414H511.805V0.40625H534.305V7.24414H530.684L530.35 4.08008H525.428V22.5898L528.205 23.1172V26H517.887ZM541.547 26.3691C539.848 26.3691 538.348 26.0703 537.047 25.4727C535.746 24.875 534.715 23.9668 533.953 22.748C533.203 21.5293 532.793 19.9883 532.723 18.125L532.758 18.0195H537.258C537.34 19.707 537.715 20.8965 538.383 21.5879C539.062 22.2793 539.982 22.625 541.143 22.625C541.893 22.625 542.543 22.4609 543.094 22.1328C543.656 21.8047 544.09 21.3301 544.395 20.709C544.711 20.0762 544.869 19.3086 544.869 18.4062V3.83398L541.424 3.32422V0.40625H552.393V3.30664L549.633 3.83398V18.4062C549.633 20.0234 549.316 21.4297 548.684 22.625C548.062 23.8203 547.154 24.7461 545.959 25.4023C544.764 26.0469 543.293 26.3691 541.547 26.3691ZM564.311 26.3691C562.494 26.3691 560.818 26.1582 559.283 25.7363C557.76 25.3027 556.271 24.5762 554.818 23.5566V17.5098H558.51L559.072 21.2363C559.646 21.6816 560.391 22.0391 561.305 22.3086C562.23 22.5781 563.232 22.7129 564.311 22.7129C565.295 22.7129 566.121 22.5781 566.789 22.3086C567.469 22.0273 567.984 21.6348 568.336 21.1309C568.688 20.6152 568.863 20.0176 568.863 19.3379C568.863 18.6816 568.705 18.1074 568.389 17.6152C568.072 17.1113 567.551 16.6602 566.824 16.2617C566.109 15.8516 565.137 15.4648 563.906 15.1016C561.938 14.5508 560.297 13.9238 558.984 13.2207C557.672 12.5176 556.688 11.6738 556.031 10.6895C555.387 9.69336 555.064 8.50977 555.064 7.13867C555.064 5.76758 555.439 4.55469 556.189 3.5C556.951 2.43359 558 1.5957 559.336 0.986328C560.684 0.376953 562.23 0.0664063 563.977 0.0546875C565.922 0.03125 567.639 0.271484 569.127 0.775391C570.615 1.2793 571.887 1.95898 572.941 2.81445V8.43945H569.338L568.688 4.90625C568.219 4.58984 567.604 4.32031 566.842 4.09766C566.08 3.875 565.201 3.76367 564.205 3.76367C563.35 3.76367 562.594 3.89844 561.938 4.16797C561.281 4.42578 560.766 4.80664 560.391 5.31055C560.016 5.81445 559.828 6.41797 559.828 7.12109C559.828 7.73047 559.992 8.26367 560.32 8.7207C560.648 9.17773 561.199 9.59961 561.973 9.98633C562.746 10.373 563.795 10.7715 565.119 11.1816C567.92 11.9434 570.041 12.9746 571.482 14.2754C572.936 15.5645 573.662 17.2402 573.662 19.3027C573.662 20.7324 573.27 21.9805 572.484 23.0469C571.711 24.1016 570.621 24.9219 569.215 25.5078C567.82 26.082 566.186 26.3691 564.311 26.3691ZM6.92578 73V70.1172L9.68555 69.5898V51.0801H4.78125L4.44727 54.2441H0.84375V47.4062H23.3438V54.2441H19.7227L19.3887 51.0801H14.4668V69.5898L17.2441 70.1172V73H6.92578ZM21.8145 73V70.1172L23.6602 69.8535L31.9746 47.4062H36.7383L44.9824 69.8535L46.8105 70.1172V73H38.3906V70.1172L40.2012 69.7832L38.9531 66.0215H29.6895L28.4414 69.7832L30.2344 70.1172V73H21.8145ZM30.8672 62.418H37.7754L34.6289 53.3125L34.3828 52.5742H34.2773L34.0137 53.3477L30.8672 62.418ZM48.709 73V70.1172L51.4688 69.5898V50.834L48.709 50.3066V47.4062H59.0098V50.3066L56.25 50.834V69.5898L59.0098 70.1172V73H48.709ZM61.1543 73V70.1172L63.9141 69.5898V50.834L61.1543 50.3066V47.4062H63.9141H68.6953H71.7363V50.3066L68.6953 50.834V69.3438H76.3066L76.5879 65.5293H80.2441V73H61.1543ZM88.5938 73L82.6523 50.5703L80.1211 50.3066V47.4062H90V50.3066L87.2578 50.7109L90.334 63.5078L90.9316 66.0039L91.0371 66.0215L91.7578 63.5078L96.8379 47.4062H100.477L105.715 63.8594L106.4 66.1973H106.506L107.121 63.8594L110.268 50.7109L107.385 50.3066V47.4062H117.07V50.3066L114.715 50.5703L108.773 73H104.396L99.4043 57.4609L98.7715 55.2461H98.666L97.9805 57.5137L92.9355 73H88.5938ZM118.881 73V70.1172L121.641 69.5898V50.834L118.881 50.3066V47.4062H129.182V50.3066L126.422 50.834V69.5898L129.182 70.1172V73H118.881ZM131.344 73V70.1172L134.086 69.5898V50.834L131.344 50.3066V47.4062H134.086H138.938L150.381 65.6172L150.486 65.5996V50.834L147.234 50.3066V47.4062H154.775H157.535V50.3066L154.775 50.834V73H150.188L138.498 54.9121L138.393 54.9297V69.5898L141.645 70.1172V73H131.344ZM159.486 73V70.1172L162.264 69.5371V50.8867L159.486 50.3066V47.4062H162.264H170.473C172.758 47.4062 174.762 47.9453 176.484 49.0234C178.219 50.1016 179.572 51.584 180.545 53.4707C181.518 55.3574 182.004 57.5254 182.004 59.9746V60.4492C182.004 62.8633 181.523 65.0195 180.562 66.918C179.613 68.8047 178.277 70.293 176.555 71.3828C174.844 72.4609 172.846 73 170.561 73H159.486ZM167.045 69.3262H170.314C171.779 69.3262 173.021 68.9395 174.041 68.166C175.061 67.3926 175.84 66.3379 176.379 65.002C176.93 63.666 177.205 62.1484 177.205 60.4492V59.9395C177.205 58.2168 176.93 56.6934 176.379 55.3691C175.84 54.0332 175.061 52.9902 174.041 52.2402C173.021 51.4785 171.779 51.0977 170.314 51.0977H167.045V69.3262ZM196.893 73.3691C194.385 73.3691 192.223 72.8418 190.406 71.7871C188.602 70.7324 187.213 69.25 186.24 67.3398C185.268 65.418 184.781 63.168 184.781 60.5898V59.834C184.781 57.3496 185.256 55.1465 186.205 53.2246C187.154 51.3027 188.514 49.791 190.283 48.6895C192.053 47.5879 194.162 47.0371 196.611 47.0371C198.334 47.0371 199.939 47.2891 201.428 47.793C202.916 48.2852 204.229 49.0117 205.365 49.9727V56.0195H201.762L201.27 52.0996C200.883 51.8184 200.455 51.5781 199.986 51.3789C199.529 51.1797 199.025 51.0273 198.475 50.9219C197.936 50.8164 197.35 50.7637 196.717 50.7637C195.217 50.7637 193.934 51.1387 192.867 51.8887C191.801 52.627 190.98 53.6699 190.406 55.0176C189.844 56.3652 189.562 57.959 189.562 59.7988V60.5898C189.562 62.4531 189.861 64.0645 190.459 65.4238C191.057 66.7832 191.906 67.832 193.008 68.5703C194.121 69.2969 195.445 69.6602 196.98 69.6602C197.742 69.6602 198.498 69.5781 199.248 69.4141C199.998 69.2383 200.666 69.0098 201.252 68.7285L201.762 65.125H205.33V71.1191C204.346 71.7637 203.127 72.3027 201.674 72.7363C200.221 73.1582 198.627 73.3691 196.893 73.3691ZM218.127 73.3691C216.311 73.3691 214.635 73.1582 213.1 72.7363C211.576 72.3027 210.088 71.5762 208.635 70.5566V64.5098H212.326L212.889 68.2363C213.463 68.6816 214.207 69.0391 215.121 69.3086C216.047 69.5781 217.049 69.7129 218.127 69.7129C219.111 69.7129 219.938 69.5781 220.605 69.3086C221.285 69.0273 221.801 68.6348 222.152 68.1309C222.504 67.6152 222.68 67.0176 222.68 66.3379C222.68 65.6816 222.521 65.1074 222.205 64.6152C221.889 64.1113 221.367 63.6602 220.641 63.2617C219.926 62.8516 218.953 62.4648 217.723 62.1016C215.754 61.5508 214.113 60.9238 212.801 60.2207C211.488 59.5176 210.504 58.6738 209.848 57.6895C209.203 56.6934 208.881 55.5098 208.881 54.1387C208.881 52.7676 209.256 51.5547 210.006 50.5C210.768 49.4336 211.816 48.5957 213.152 47.9863C214.5 47.377 216.047 47.0664 217.793 47.0547C219.738 47.0312 221.455 47.2715 222.943 47.7754C224.432 48.2793 225.703 48.959 226.758 49.8145V55.4395H223.154L222.504 51.9062C222.035 51.5898 221.42 51.3203 220.658 51.0977C219.896 50.875 219.018 50.7637 218.021 50.7637C217.166 50.7637 216.41 50.8984 215.754 51.168C215.098 51.4258 214.582 51.8066 214.207 52.3105C213.832 52.8145 213.645 53.418 213.645 54.1211C213.645 54.7305 213.809 55.2637 214.137 55.7207C214.465 56.1777 215.016 56.5996 215.789 56.9863C216.562 57.373 217.611 57.7715 218.936 58.1816C221.736 58.9434 223.857 59.9746 225.299 61.2754C226.752 62.5645 227.479 64.2402 227.479 66.3027C227.479 67.7324 227.086 68.9805 226.301 70.0469C225.527 71.1016 224.438 71.9219 223.031 72.5078C221.637 73.082 220.002 73.3691 218.127 73.3691ZM239.889 73.3691C238.072 73.3691 236.396 73.1582 234.861 72.7363C233.338 72.3027 231.85 71.5762 230.396 70.5566V64.5098H234.088L234.65 68.2363C235.225 68.6816 235.969 69.0391 236.883 69.3086C237.809 69.5781 238.811 69.7129 239.889 69.7129C240.873 69.7129 241.699 69.5781 242.367 69.3086C243.047 69.0273 243.562 68.6348 243.914 68.1309C244.266 67.6152 244.441 67.0176 244.441 66.3379C244.441 65.6816 244.283 65.1074 243.967 64.6152C243.65 64.1113 243.129 63.6602 242.402 63.2617C241.688 62.8516 240.715 62.4648 239.484 62.1016C237.516 61.5508 235.875 60.9238 234.562 60.2207C233.25 59.5176 232.266 58.6738 231.609 57.6895C230.965 56.6934 230.643 55.5098 230.643 54.1387C230.643 52.7676 231.018 51.5547 231.768 50.5C232.529 49.4336 233.578 48.5957 234.914 47.9863C236.262 47.377 237.809 47.0664 239.555 47.0547C241.5 47.0312 243.217 47.2715 244.705 47.7754C246.193 48.2793 247.465 48.959 248.52 49.8145V55.4395H244.916L244.266 51.9062C243.797 51.5898 243.182 51.3203 242.42 51.0977C241.658 50.875 240.779 50.7637 239.783 50.7637C238.928 50.7637 238.172 50.8984 237.516 51.168C236.859 51.4258 236.344 51.8066 235.969 52.3105C235.594 52.8145 235.406 53.418 235.406 54.1211C235.406 54.7305 235.57 55.2637 235.898 55.7207C236.227 56.1777 236.777 56.5996 237.551 56.9863C238.324 57.373 239.373 57.7715 240.697 58.1816C243.498 58.9434 245.619 59.9746 247.061 61.2754C248.514 62.5645 249.24 64.2402 249.24 66.3027C249.24 67.7324 248.848 68.9805 248.062 70.0469C247.289 71.1016 246.199 71.9219 244.793 72.5078C243.398 73.082 241.764 73.3691 239.889 73.3691ZM260.332 73V70.1172L263.074 69.5898V50.834L260.332 50.3066V47.4062H263.074H267.926L279.369 65.6172L279.475 65.5996V50.834L276.223 50.3066V47.4062H283.764H286.523V50.3066L283.764 50.834V73H279.176L267.486 54.9121L267.381 54.9297V69.5898L270.633 70.1172V73H260.332ZM299.936 73.3691C298.225 73.3691 296.672 73.0527 295.277 72.4199C293.883 71.7754 292.682 70.873 291.674 69.7129C290.678 68.541 289.91 67.1699 289.371 65.5996C288.832 64.0176 288.562 62.2832 288.562 60.3965V60.0098C288.562 58.1348 288.832 56.4121 289.371 54.8418C289.91 53.2598 290.678 51.8887 291.674 50.7285C292.682 49.5566 293.877 48.6484 295.26 48.0039C296.654 47.3594 298.207 47.0371 299.918 47.0371C301.664 47.0371 303.234 47.3594 304.629 48.0039C306.035 48.6484 307.242 49.5566 308.25 50.7285C309.258 51.8887 310.025 53.2598 310.553 54.8418C311.092 56.4121 311.361 58.1348 311.361 60.0098V60.3965C311.361 62.2832 311.092 64.0176 310.553 65.5996C310.025 67.1699 309.258 68.541 308.25 69.7129C307.254 70.873 306.053 71.7754 304.646 72.4199C303.24 73.0527 301.67 73.3691 299.936 73.3691ZM299.936 69.6074C301.436 69.6074 302.678 69.2266 303.662 68.4648C304.646 67.6914 305.379 66.6133 305.859 65.2305C306.352 63.8477 306.598 62.2363 306.598 60.3965V59.9746C306.598 58.1582 306.352 56.5645 305.859 55.1934C305.367 53.8223 304.623 52.75 303.627 51.9766C302.643 51.2031 301.406 50.8164 299.918 50.8164C298.465 50.8164 297.252 51.2031 296.279 51.9766C295.307 52.7383 294.574 53.8047 294.082 55.1758C293.602 56.5469 293.361 58.1465 293.361 59.9746V60.3965C293.361 62.2246 293.602 63.8359 294.082 65.2305C294.574 66.6133 295.307 67.6914 296.279 68.4648C297.264 69.2266 298.482 69.6074 299.936 69.6074ZM313.541 73V70.1172L316.318 69.5371V50.8867L313.541 50.3066V47.4062H316.318H324.527C326.812 47.4062 328.816 47.9453 330.539 49.0234C332.273 50.1016 333.627 51.584 334.6 53.4707C335.572 55.3574 336.059 57.5254 336.059 59.9746V60.4492C336.059 62.8633 335.578 65.0195 334.617 66.918C333.668 68.8047 332.332 70.293 330.609 71.3828C328.898 72.4609 326.9 73 324.615 73H313.541ZM321.1 69.3262H324.369C325.834 69.3262 327.076 68.9395 328.096 68.166C329.115 67.3926 329.895 66.3379 330.434 65.002C330.984 63.666 331.26 62.1484 331.26 60.4492V59.9395C331.26 58.2168 330.984 56.6934 330.434 55.3691C329.895 54.0332 329.115 52.9902 328.096 52.2402C327.076 51.4785 325.834 51.0977 324.369 51.0977H321.1V69.3262ZM338.361 73V70.1172L341.121 69.5898V50.834L338.361 50.3066V47.4062H358.031V54.1562H354.34L354.076 51.0801H345.902V57.918H354.727V61.627H345.902V69.3438H354.533L354.797 66.1973H358.453V73H338.361ZM369.809 73.3691C368.109 73.3691 366.609 73.0703 365.309 72.4727C364.008 71.875 362.977 70.9668 362.215 69.748C361.465 68.5293 361.055 66.9883 360.984 65.125L361.02 65.0195H365.52C365.602 66.707 365.977 67.8965 366.645 68.5879C367.324 69.2793 368.244 69.625 369.404 69.625C370.154 69.625 370.805 69.4609 371.355 69.1328C371.918 68.8047 372.352 68.3301 372.656 67.709C372.973 67.0762 373.131 66.3086 373.131 65.4062V50.834L369.686 50.3242V47.4062H380.654V50.3066L377.895 50.834V65.4062C377.895 67.0234 377.578 68.4297 376.945 69.625C376.324 70.8203 375.416 71.7461 374.221 72.4023C373.025 73.0469 371.555 73.3691 369.809 73.3691ZM392.572 73.3691C390.756 73.3691 389.08 73.1582 387.545 72.7363C386.021 72.3027 384.533 71.5762 383.08 70.5566V64.5098H386.771L387.334 68.2363C387.908 68.6816 388.652 69.0391 389.566 69.3086C390.492 69.5781 391.494 69.7129 392.572 69.7129C393.557 69.7129 394.383 69.5781 395.051 69.3086C395.73 69.0273 396.246 68.6348 396.598 68.1309C396.949 67.6152 397.125 67.0176 397.125 66.3379C397.125 65.6816 396.967 65.1074 396.65 64.6152C396.334 64.1113 395.812 63.6602 395.086 63.2617C394.371 62.8516 393.398 62.4648 392.168 62.1016C390.199 61.5508 388.559 60.9238 387.246 60.2207C385.934 59.5176 384.949 58.6738 384.293 57.6895C383.648 56.6934 383.326 55.5098 383.326 54.1387C383.326 52.7676 383.701 51.5547 384.451 50.5C385.213 49.4336 386.262 48.5957 387.598 47.9863C388.945 47.377 390.492 47.0664 392.238 47.0547C394.184 47.0312 395.9 47.2715 397.389 47.7754C398.877 48.2793 400.148 48.959 401.203 49.8145V55.4395H397.6L396.949 51.9062C396.48 51.5898 395.865 51.3203 395.104 51.0977C394.342 50.875 393.463 50.7637 392.467 50.7637C391.611 50.7637 390.855 50.8984 390.199 51.168C389.543 51.4258 389.027 51.8066 388.652 52.3105C388.277 52.8145 388.09 53.418 388.09 54.1211C388.09 54.7305 388.254 55.2637 388.582 55.7207C388.91 56.1777 389.461 56.5996 390.234 56.9863C391.008 57.373 392.057 57.7715 393.381 58.1816C396.182 58.9434 398.303 59.9746 399.744 61.2754C401.197 62.5645 401.924 64.2402 401.924 66.3027C401.924 67.7324 401.531 68.9805 400.746 70.0469C399.973 71.1016 398.883 71.9219 397.477 72.5078C396.082 73.082 394.447 73.3691 392.572 73.3691ZM421.453 73.3691C419.754 73.3691 418.254 73.0703 416.953 72.4727C415.652 71.875 414.621 70.9668 413.859 69.748C413.109 68.5293 412.699 66.9883 412.629 65.125L412.664 65.0195H417.164C417.246 66.707 417.621 67.8965 418.289 68.5879C418.969 69.2793 419.889 69.625 421.049 69.625C421.799 69.625 422.449 69.4609 423 69.1328C423.562 68.8047 423.996 68.3301 424.301 67.709C424.617 67.0762 424.775 66.3086 424.775 65.4062V50.834L421.33 50.3242V47.4062H432.299V50.3066L429.539 50.834V65.4062C429.539 67.0234 429.223 68.4297 428.59 69.625C427.969 70.8203 427.061 71.7461 425.865 72.4023C424.67 73.0469 423.199 73.3691 421.453 73.3691ZM432.158 73V70.1172L434.004 69.8535L442.318 47.4062H447.082L455.326 69.8535L457.154 70.1172V73H448.734V70.1172L450.545 69.7832L449.297 66.0215H440.033L438.785 69.7832L440.578 70.1172V73H432.158ZM441.211 62.418H448.119L444.973 53.3125L444.727 52.5742H444.621L444.357 53.3477L441.211 62.418ZM465.434 73L457.119 50.5879L454.904 50.3066V47.4062H464.643V50.3066L462.322 50.6758L467.49 66.0215L467.93 67.5508H468.035L468.475 66.0566L473.678 50.6582L471.006 50.3066V47.4062H480.375V50.3066L478.107 50.5879L470.215 73H465.434ZM477.791 73V70.1172L479.637 69.8535L487.951 47.4062H492.715L500.959 69.8535L502.787 70.1172V73H494.367V70.1172L496.178 69.7832L494.93 66.0215H485.666L484.418 69.7832L486.211 70.1172V73H477.791ZM486.844 62.418H493.752L490.605 53.3125L490.359 52.5742H490.254L489.99 53.3477L486.844 62.418ZM525.604 73.3691C523.096 73.3691 520.934 72.8418 519.117 71.7871C517.312 70.7324 515.924 69.25 514.951 67.3398C513.979 65.418 513.492 63.168 513.492 60.5898V59.834C513.492 57.3496 513.967 55.1465 514.916 53.2246C515.865 51.3027 517.225 49.791 518.994 48.6895C520.764 47.5879 522.873 47.0371 525.322 47.0371C527.045 47.0371 528.65 47.2891 530.139 47.793C531.627 48.2852 532.939 49.0117 534.076 49.9727V56.0195H530.473L529.98 52.0996C529.594 51.8184 529.166 51.5781 528.697 51.3789C528.24 51.1797 527.736 51.0273 527.186 50.9219C526.646 50.8164 526.061 50.7637 525.428 50.7637C523.928 50.7637 522.645 51.1387 521.578 51.8887C520.512 52.627 519.691 53.6699 519.117 55.0176C518.555 56.3652 518.273 57.959 518.273 59.7988V60.5898C518.273 62.4531 518.572 64.0645 519.17 65.4238C519.768 66.7832 520.617 67.832 521.719 68.5703C522.832 69.2969 524.156 69.6602 525.691 69.6602C526.453 69.6602 527.209 69.5781 527.959 69.4141C528.709 69.2383 529.377 69.0098 529.963 68.7285L530.473 65.125H534.041V71.1191C533.057 71.7637 531.838 72.3027 530.385 72.7363C528.932 73.1582 527.338 73.3691 525.604 73.3691ZM546.838 73.3691C545.021 73.3691 543.346 73.1582 541.811 72.7363C540.287 72.3027 538.799 71.5762 537.346 70.5566V64.5098H541.037L541.6 68.2363C542.174 68.6816 542.918 69.0391 543.832 69.3086C544.758 69.5781 545.76 69.7129 546.838 69.7129C547.822 69.7129 548.648 69.5781 549.316 69.3086C549.996 69.0273 550.512 68.6348 550.863 68.1309C551.215 67.6152 551.391 67.0176 551.391 66.3379C551.391 65.6816 551.232 65.1074 550.916 64.6152C550.6 64.1113 550.078 63.6602 549.352 63.2617C548.637 62.8516 547.664 62.4648 546.434 62.1016C544.465 61.5508 542.824 60.9238 541.512 60.2207C540.199 59.5176 539.215 58.6738 538.559 57.6895C537.914 56.6934 537.592 55.5098 537.592 54.1387C537.592 52.7676 537.967 51.5547 538.717 50.5C539.479 49.4336 540.527 48.5957 541.863 47.9863C543.211 47.377 544.758 47.0664 546.504 47.0547C548.449 47.0312 550.166 47.2715 551.654 47.7754C553.143 48.2793 554.414 48.959 555.469 49.8145V55.4395H551.865L551.215 51.9062C550.746 51.5898 550.131 51.3203 549.369 51.0977C548.607 50.875 547.729 50.7637 546.732 50.7637C545.877 50.7637 545.121 50.8984 544.465 51.168C543.809 51.4258 543.293 51.8066 542.918 52.3105C542.543 52.8145 542.355 53.418 542.355 54.1211C542.355 54.7305 542.52 55.2637 542.848 55.7207C543.176 56.1777 543.727 56.5996 544.5 56.9863C545.273 57.373 546.322 57.7715 547.646 58.1816C550.447 58.9434 552.568 59.9746 554.01 61.2754C555.463 62.5645 556.189 64.2402 556.189 66.3027C556.189 67.7324 555.797 68.9805 555.012 70.0469C554.238 71.1016 553.148 71.9219 551.742 72.5078C550.348 73.082 548.713 73.3691 546.838 73.3691ZM568.6 73.3691C566.783 73.3691 565.107 73.1582 563.572 72.7363C562.049 72.3027 560.561 71.5762 559.107 70.5566V64.5098H562.799L563.361 68.2363C563.936 68.6816 564.68 69.0391 565.594 69.3086C566.52 69.5781 567.521 69.7129 568.6 69.7129C569.584 69.7129 570.41 69.5781 571.078 69.3086C571.758 69.0273 572.273 68.6348 572.625 68.1309C572.977 67.6152 573.152 67.0176 573.152 66.3379C573.152 65.6816 572.994 65.1074 572.678 64.6152C572.361 64.1113 571.84 63.6602 571.113 63.2617C570.398 62.8516 569.426 62.4648 568.195 62.1016C566.227 61.5508 564.586 60.9238 563.273 60.2207C561.961 59.5176 560.977 58.6738 560.32 57.6895C559.676 56.6934 559.354 55.5098 559.354 54.1387C559.354 52.7676 559.729 51.5547 560.479 50.5C561.24 49.4336 562.289 48.5957 563.625 47.9863C564.973 47.377 566.52 47.0664 568.266 47.0547C570.211 47.0312 571.928 47.2715 573.416 47.7754C574.904 48.2793 576.176 48.959 577.23 49.8145V55.4395H573.627L572.977 51.9062C572.508 51.5898 571.893 51.3203 571.131 51.0977C570.369 50.875 569.49 50.7637 568.494 50.7637C567.639 50.7637 566.883 50.8984 566.227 51.168C565.57 51.4258 565.055 51.8066 564.68 52.3105C564.305 52.8145 564.117 53.418 564.117 54.1211C564.117 54.7305 564.281 55.2637 564.609 55.7207C564.938 56.1777 565.488 56.5996 566.262 56.9863C567.035 57.373 568.084 57.7715 569.408 58.1816C572.209 58.9434 574.33 59.9746 575.771 61.2754C577.225 62.5645 577.951 64.2402 577.951 66.3027C577.951 67.7324 577.559 68.9805 576.773 70.0469C576 71.1016 574.91 71.9219 573.504 72.5078C572.109 73.082 570.475 73.3691 568.6 73.3691ZM0.931641 120V117.117L3.69141 116.59V97.834L0.931641 97.3066V94.4062H11.2324V97.3066L8.47266 97.834V105.533H19.2832V97.834L16.5234 97.3066V94.4062H19.2832H24.0645H26.8242V97.3066L24.0645 97.834V116.59L26.8242 117.117V120H16.5234V117.117L19.2832 116.59V109.225H8.47266V116.59L11.2324 117.117V120H0.931641ZM34.9805 120V117.117L37.7402 116.59V98.0801H32.8359L32.502 101.244H28.8984V94.4062H51.3984V101.244H47.7773L47.4434 98.0801H42.5215V116.59L45.2988 117.117V120H34.9805ZM53.543 120V117.117L56.2852 116.59V97.834L53.543 97.3066V94.4062H56.2852H63.2637L70.5059 112.582H70.6113L77.625 94.4062H87.3984V97.3066L84.6387 97.834V116.59L87.3984 117.117V120H77.0977V117.117L79.998 116.59V111.158L80.0684 99.7852L79.9805 99.7676L72.1758 119.525H68.6426L60.6445 99.8906L60.5391 99.9082L60.8203 110.736V116.59L63.8438 117.117V120H53.543ZM89.4902 120V117.117L92.25 116.59V97.834L89.4902 97.3066V94.4062H92.25H97.0312H100.072V97.3066L97.0312 97.834V116.344H104.643L104.924 112.529H108.58V120H89.4902ZM127.934 120.369C126.234 120.369 124.734 120.07 123.434 119.473C122.133 118.875 121.102 117.967 120.34 116.748C119.59 115.529 119.18 113.988 119.109 112.125L119.145 112.02H123.645C123.727 113.707 124.102 114.896 124.77 115.588C125.449 116.279 126.369 116.625 127.529 116.625C128.279 116.625 128.93 116.461 129.48 116.133C130.043 115.805 130.477 115.33 130.781 114.709C131.098 114.076 131.256 113.309 131.256 112.406V97.834L127.811 97.3242V94.4062H138.779V97.3066L136.02 97.834V112.406C136.02 114.023 135.703 115.43 135.07 116.625C134.449 117.82 133.541 118.746 132.346 119.402C131.15 120.047 129.68 120.369 127.934 120.369ZM140.502 120V117.117L143.262 116.59V97.834L140.502 97.3066V94.4062H160.172V101.156H156.48L156.217 98.0801H148.043V104.918H156.867V108.627H148.043V116.344H156.674L156.938 113.197H160.594V120H140.502ZM173.689 120.369C171.873 120.369 170.197 120.158 168.662 119.736C167.139 119.303 165.65 118.576 164.197 117.557V111.51H167.889L168.451 115.236C169.025 115.682 169.77 116.039 170.684 116.309C171.609 116.578 172.611 116.713 173.689 116.713C174.674 116.713 175.5 116.578 176.168 116.309C176.848 116.027 177.363 115.635 177.715 115.131C178.066 114.615 178.242 114.018 178.242 113.338C178.242 112.682 178.084 112.107 177.768 111.615C177.451 111.111 176.93 110.66 176.203 110.262C175.488 109.852 174.516 109.465 173.285 109.102C171.316 108.551 169.676 107.924 168.363 107.221C167.051 106.518 166.066 105.674 165.41 104.689C164.766 103.693 164.443 102.51 164.443 101.139C164.443 99.7676 164.818 98.5547 165.568 97.5C166.33 96.4336 167.379 95.5957 168.715 94.9863C170.062 94.377 171.609 94.0664 173.355 94.0547C175.301 94.0312 177.018 94.2715 178.506 94.7754C179.994 95.2793 181.266 95.959 182.32 96.8145V102.439H178.717L178.066 98.9062C177.598 98.5898 176.982 98.3203 176.221 98.0977C175.459 97.875 174.58 97.7637 173.584 97.7637C172.729 97.7637 171.973 97.8984 171.316 98.168C170.66 98.4258 170.145 98.8066 169.77 99.3105C169.395 99.8145 169.207 100.418 169.207 101.121C169.207 101.73 169.371 102.264 169.699 102.721C170.027 103.178 170.578 103.6 171.352 103.986C172.125 104.373 173.174 104.771 174.498 105.182C177.299 105.943 179.42 106.975 180.861 108.275C182.314 109.564 183.041 111.24 183.041 113.303C183.041 114.732 182.648 115.98 181.863 117.047C181.09 118.102 180 118.922 178.594 119.508C177.199 120.082 175.564 120.369 173.689 120.369ZM191.25 120V117.117L194.01 116.59V98.0801H189.105L188.771 101.244H185.168V94.4062H207.668V101.244H204.047L203.713 98.0801H198.791V116.59L201.568 117.117V120H191.25ZM228.814 120.369C226.998 120.369 225.322 120.158 223.787 119.736C222.264 119.303 220.775 118.576 219.322 117.557V111.51H223.014L223.576 115.236C224.15 115.682 224.895 116.039 225.809 116.309C226.734 116.578 227.736 116.713 228.814 116.713C229.799 116.713 230.625 116.578 231.293 116.309C231.973 116.027 232.488 115.635 232.84 115.131C233.191 114.615 233.367 114.018 233.367 113.338C233.367 112.682 233.209 112.107 232.893 111.615C232.576 111.111 232.055 110.66 231.328 110.262C230.613 109.852 229.641 109.465 228.41 109.102C226.441 108.551 224.801 107.924 223.488 107.221C222.176 106.518 221.191 105.674 220.535 104.689C219.891 103.693 219.568 102.51 219.568 101.139C219.568 99.7676 219.943 98.5547 220.693 97.5C221.455 96.4336 222.504 95.5957 223.84 94.9863C225.188 94.377 226.734 94.0664 228.48 94.0547C230.426 94.0312 232.143 94.2715 233.631 94.7754C235.119 95.2793 236.391 95.959 237.445 96.8145V102.439H233.842L233.191 98.9062C232.723 98.5898 232.107 98.3203 231.346 98.0977C230.584 97.875 229.705 97.7637 228.709 97.7637C227.854 97.7637 227.098 97.8984 226.441 98.168C225.785 98.4258 225.27 98.8066 224.895 99.3105C224.52 99.8145 224.332 100.418 224.332 101.121C224.332 101.73 224.496 102.264 224.824 102.721C225.152 103.178 225.703 103.6 226.477 103.986C227.25 104.373 228.299 104.771 229.623 105.182C232.424 105.943 234.545 106.975 235.986 108.275C237.439 109.564 238.166 111.24 238.166 113.303C238.166 114.732 237.773 115.98 236.988 117.047C236.215 118.102 235.125 118.922 233.719 119.508C232.324 120.082 230.689 120.369 228.814 120.369ZM252.439 120.369C249.932 120.369 247.77 119.842 245.953 118.787C244.148 117.732 242.76 116.25 241.787 114.34C240.814 112.418 240.328 110.168 240.328 107.59V106.834C240.328 104.35 240.803 102.146 241.752 100.225C242.701 98.3027 244.061 96.791 245.83 95.6895C247.6 94.5879 249.709 94.0371 252.158 94.0371C253.881 94.0371 255.486 94.2891 256.975 94.793C258.463 95.2852 259.775 96.0117 260.912 96.9727V103.02H257.309L256.816 99.0996C256.43 98.8184 256.002 98.5781 255.533 98.3789C255.076 98.1797 254.572 98.0273 254.021 97.9219C253.482 97.8164 252.896 97.7637 252.264 97.7637C250.764 97.7637 249.48 98.1387 248.414 98.8887C247.348 99.627 246.527 100.67 245.953 102.018C245.391 103.365 245.109 104.959 245.109 106.799V107.59C245.109 109.453 245.408 111.064 246.006 112.424C246.604 113.783 247.453 114.832 248.555 115.57C249.668 116.297 250.992 116.66 252.527 116.66C253.289 116.66 254.045 116.578 254.795 116.414C255.545 116.238 256.213 116.01 256.799 115.729L257.309 112.125H260.877V118.119C259.893 118.764 258.674 119.303 257.221 119.736C255.768 120.158 254.174 120.369 252.439 120.369ZM263.479 120V117.117L266.238 116.59V97.834L263.479 97.3066V94.4062H275.467C277.4 94.4062 279.059 94.7051 280.441 95.3027C281.836 95.9004 282.896 96.7617 283.623 97.8867C284.361 99.0117 284.73 100.359 284.73 101.93C284.73 103.43 284.367 104.754 283.641 105.902C282.914 107.051 281.895 107.953 280.582 108.609C279.281 109.254 277.77 109.582 276.047 109.594L271.02 109.611V116.59L273.779 117.117V120H263.479ZM280.037 120L275.432 108.574L279.826 107.678L283.764 116.625L285.855 117.082V120H280.037ZM271.02 105.92H275.309C276.891 105.92 278.062 105.598 278.824 104.953C279.586 104.297 279.967 103.348 279.967 102.105C279.967 100.887 279.592 99.9141 278.842 99.1875C278.092 98.4609 276.967 98.0977 275.467 98.0977H271.02V105.92ZM300.656 120.369C298.676 120.369 296.93 120.023 295.418 119.332C293.918 118.629 292.746 117.615 291.902 116.291C291.059 114.955 290.637 113.344 290.637 111.457V97.834L287.895 97.3066V94.4062H298.178V97.3066L295.418 97.834V111.457C295.418 112.617 295.629 113.584 296.051 114.357C296.484 115.131 297.094 115.711 297.879 116.098C298.664 116.484 299.59 116.678 300.656 116.678C301.746 116.678 302.689 116.49 303.486 116.115C304.283 115.729 304.893 115.148 305.314 114.375C305.748 113.602 305.965 112.629 305.965 111.457V97.834L303.205 97.3066V94.4062H313.506V97.3066L310.746 97.834V111.457C310.746 113.355 310.324 114.973 309.48 116.309C308.637 117.633 307.459 118.641 305.947 119.332C304.436 120.023 302.672 120.369 300.656 120.369ZM315.422 120V117.117L318.164 116.59V97.834L315.422 97.3066V94.4062H318.164H325.143L332.385 112.582H332.49L339.504 94.4062H349.277V97.3066L346.518 97.834V116.59L349.277 117.117V120H338.977V117.117L341.877 116.59V111.158L341.947 99.7852L341.859 99.7676L334.055 119.525H330.521L322.523 99.8906L322.418 99.9082L322.699 110.736V116.59L325.723 117.117V120H315.422ZM360.229 120V117.117L362.988 116.59V97.834L360.229 97.3066V94.4062H362.988H367.77H370.811V97.3066L367.77 97.834V116.344H375.381L375.662 112.529H379.318V120H360.229ZM381.357 120V117.117L384.117 116.59V97.834L381.357 97.3066V94.4062H401.027V101.156H397.336L397.072 98.0801H388.898V104.918H397.723V108.627H388.898V116.344H397.529L397.793 113.197H401.449V120H381.357ZM404.104 120V117.117L405.949 116.854L414.264 94.4062H419.027L427.271 116.854L429.1 117.117V120H420.68V117.117L422.49 116.783L421.242 113.021H411.979L410.73 116.783L412.523 117.117V120H404.104ZM413.156 109.418H420.064L416.918 100.312L416.672 99.5742H416.566L416.303 100.348L413.156 109.418ZM430.998 120V117.117L433.775 116.537V97.8867L430.998 97.3066V94.4062H433.775H441.984C444.27 94.4062 446.273 94.9453 447.996 96.0234C449.73 97.1016 451.084 98.584 452.057 100.471C453.029 102.357 453.516 104.525 453.516 106.975V107.449C453.516 109.863 453.035 112.02 452.074 113.918C451.125 115.805 449.789 117.293 448.066 118.383C446.355 119.461 444.357 120 442.072 120H430.998ZM438.557 116.326H441.826C443.291 116.326 444.533 115.939 445.553 115.166C446.572 114.393 447.352 113.338 447.891 112.002C448.441 110.666 448.717 109.148 448.717 107.449V106.939C448.717 105.217 448.441 103.693 447.891 102.369C447.352 101.033 446.572 99.9902 445.553 99.2402C444.533 98.4785 443.291 98.0977 441.826 98.0977H438.557V116.326ZM455.818 120V117.117L458.578 116.59V97.834L455.818 97.3066V94.4062H475.488V101.156H471.797L471.533 98.0801H463.359V104.918H472.184V108.627H463.359V116.344H471.99L472.254 113.197H475.91V120H455.818ZM478.811 120V117.117L481.57 116.59V97.834L478.811 97.3066V94.4062H490.799C492.732 94.4062 494.391 94.7051 495.773 95.3027C497.168 95.9004 498.229 96.7617 498.955 97.8867C499.693 99.0117 500.062 100.359 500.062 101.93C500.062 103.43 499.699 104.754 498.973 105.902C498.246 107.051 497.227 107.953 495.914 108.609C494.613 109.254 493.102 109.582 491.379 109.594L486.352 109.611V116.59L489.111 117.117V120H478.811ZM495.369 120L490.764 108.574L495.158 107.678L499.096 116.625L501.188 117.082V120H495.369ZM486.352 105.92H490.641C492.223 105.92 493.395 105.598 494.156 104.953C494.918 104.297 495.299 103.348 495.299 102.105C495.299 100.887 494.924 99.9141 494.174 99.1875C493.424 98.4609 492.299 98.0977 490.799 98.0977H486.352V105.92ZM513.686 120.369C511.869 120.369 510.193 120.158 508.658 119.736C507.135 119.303 505.646 118.576 504.193 117.557V111.51H507.885L508.447 115.236C509.021 115.682 509.766 116.039 510.68 116.309C511.605 116.578 512.607 116.713 513.686 116.713C514.67 116.713 515.496 116.578 516.164 116.309C516.844 116.027 517.359 115.635 517.711 115.131C518.062 114.615 518.238 114.018 518.238 113.338C518.238 112.682 518.08 112.107 517.764 111.615C517.447 111.111 516.926 110.66 516.199 110.262C515.484 109.852 514.512 109.465 513.281 109.102C511.312 108.551 509.672 107.924 508.359 107.221C507.047 106.518 506.062 105.674 505.406 104.689C504.762 103.693 504.439 102.51 504.439 101.139C504.439 99.7676 504.814 98.5547 505.564 97.5C506.326 96.4336 507.375 95.5957 508.711 94.9863C510.059 94.377 511.605 94.0664 513.352 94.0547C515.297 94.0312 517.014 94.2715 518.502 94.7754C519.99 95.2793 521.262 95.959 522.316 96.8145V102.439H518.713L518.062 98.9062C517.594 98.5898 516.979 98.3203 516.217 98.0977C515.455 97.875 514.576 97.7637 513.58 97.7637C512.725 97.7637 511.969 97.8984 511.312 98.168C510.656 98.4258 510.141 98.8066 509.766 99.3105C509.391 99.8145 509.203 100.418 509.203 101.121C509.203 101.73 509.367 102.264 509.695 102.721C510.023 103.178 510.574 103.6 511.348 103.986C512.121 104.373 513.17 104.771 514.494 105.182C517.295 105.943 519.416 106.975 520.857 108.275C522.311 109.564 523.037 111.24 523.037 113.303C523.037 114.732 522.645 115.98 521.859 117.047C521.086 118.102 519.996 118.922 518.59 119.508C517.195 120.082 515.561 120.369 513.686 120.369ZM525.252 120V117.117L528.012 116.59V97.834L525.252 97.3066V94.4062H535.553V97.3066L532.793 97.834V105.533H543.604V97.834L540.844 97.3066V94.4062H543.604H548.385H551.145V97.3066L548.385 97.834V116.59L551.145 117.117V120H540.844V117.117L543.604 116.59V109.225H532.793V116.59L535.553 117.117V120H525.252ZM553.307 120V117.117L556.066 116.59V97.834L553.307 97.3066V94.4062H563.607V97.3066L560.848 97.834V116.59L563.607 117.117V120H553.307ZM565.752 120V117.117L568.512 116.59V97.834L565.752 97.3066V94.4062H568.512H577.846C579.779 94.4062 581.438 94.7461 582.82 95.4258C584.215 96.0938 585.287 97.0371 586.037 98.2559C586.787 99.4629 587.162 100.869 587.162 102.475C587.162 104.092 586.787 105.504 586.037 106.711C585.287 107.906 584.215 108.838 582.82 109.506C581.438 110.174 579.779 110.508 577.846 110.508H573.293V116.59L576.053 117.117V120H565.752ZM573.293 106.816H577.846C579.346 106.816 580.477 106.412 581.238 105.604C582 104.795 582.381 103.764 582.381 102.51C582.381 101.244 582 100.195 581.238 99.3633C580.477 98.5195 579.346 98.0977 577.846 98.0977H573.293V106.816Z" fill="white" fill-opacity="0.04"/>
</svg>
