<svg id="visual" viewBox="0 0 960 540" width="960" height="540" xmlns="http://www.w3.org/2000/svg" xmlns:xlink="http://www.w3.org/1999/xlink" version="1.1"><path d="M0 66L80 63.3C160 60.7 320 55.3 480 53.5C640 51.7 800 53.3 880 54.2L960 55L960 0L880 0C800 0 640 0 480 0C320 0 160 0 80 0L0 0Z" fill="#0a0a0a"></path><path d="M0 212L80 206.5C160 201 320 190 480 191.7C640 193.3 800 207.7 880 214.8L960 222L960 53L880 52.2C800 51.3 640 49.7 480 51.5C320 53.3 160 58.7 80 61.3L0 64Z" fill="#0d0d0d"></path><path d="M0 341L80 341C160 341 320 341 480 342C640 343 800 345 880 346L960 347L960 220L880 212.8C800 205.7 640 191.3 480 189.7C320 188 160 199 80 204.5L0 210Z" fill="#101010"></path><path d="M0 384L80 385.8C160 387.7 320 391.3 480 393.2C640 395 800 395 880 395L960 395L960 345L880 344C800 343 640 341 480 340C320 339 160 339 80 339L0 339Z" fill="#121212"></path><path d="M0 465L80 462.3C160 459.7 320 454.3 480 455.3C640 456.3 800 463.7 880 467.3L960 471L960 393L880 393C800 393 640 393 480 391.2C320 389.3 160 385.7 80 383.8L0 382Z" fill="#151515"></path><path d="M0 541L80 541C160 541 320 541 480 541C640 541 800 541 880 541L960 541L960 469L880 465.3C800 461.7 640 454.3 480 453.3C320 452.3 160 457.7 80 460.3L0 463Z" fill="#171717"></path></svg>